<?xml version="1.0" encoding="UTF-8"?>
<svg id="Layer_2" data-name="Layer 2" xmlns="http://www.w3.org/2000/svg" viewBox="0 0 489.37 88.89">
  <defs>
    <style>
      .cls-1 {
        fill: #000;
      }

      .cls-1, .cls-2 {
        stroke-width: 0px;
      }

      .cls-2 {
        fill: #fff;
      }
    </style>
  </defs>
  <g id="Layer_4" data-name="Layer 4">
    <rect class="cls-1" width="178.67" height="88.89"/>
    <g>
      <path class="cls-2" d="M53.83,36.65h-6.7v-13.1h-6.41v39.17h6.55v6.7h-19.8v-6.7h6.55V23.54h-6.41v13.1h-6.7v-19.8h32.9v19.8Z"/>
      <path class="cls-2" d="M79.89,69.41v-13.1h-6.55v-13.1h-6.55v-26.35h6.7v26.21h6.55v13.1h6.41v-26.21h6.7v26.21h6.41v-13.1h6.55v-26.21h6.7v26.35h-6.55v13.1h-6.55v13.1h-6.7v-13.1h-6.41v13.1h-6.7Z"/>
      <path class="cls-2" d="M152.11,69.41h-19.8v-6.55h-6.55V23.4h6.55v-6.55h19.8v6.55h6.55v39.46h-6.55v6.55ZM151.96,23.54h-19.51v39.17h19.51V23.54Z"/>
    </g>
    <g>
      <path class="cls-1" d="M233.7,69.41v-26.21h-6.41v13.1h-6.55v13.1h-6.7v-13.1h-6.55v-13.1h-6.41v26.21h-6.7V16.85h6.7v13.1h6.55v13.1h6.55v13.1h6.41v-13.1h6.55v-13.1h6.55v-13.1h6.7v52.56h-6.7Z"/>
      <path class="cls-1" d="M246.8,69.41v-6.7h6.55V23.54h-6.55v-6.7h19.8v6.7h-6.55v39.17h6.55v6.7h-19.8Z"/>
      <path class="cls-1" d="M299.22,69.41v-6.55h-6.55v-13.1h-6.55v-13.1h-6.41v32.76h-6.7V16.85h6.7v6.55h6.55v13.1h6.55v13.1h6.41V16.85h6.7v52.56h-6.7Z"/>
      <path class="cls-1" d="M325.43,69.41v-6.55h-6.55V16.85h6.7v45.86h19.51V16.85h6.7v46.01h-6.55v6.55h-19.8Z"/>
      <path class="cls-1" d="M397.64,36.65h-6.7v-13.1h-6.41v39.17h6.55v6.7h-19.8v-6.7h6.55V23.54h-6.41v13.1h-6.7v-19.8h32.9v19.8Z"/>
      <path class="cls-1" d="M410.6,69.41v-6.7h6.55V23.54h-6.55v-6.7h32.9v13.25h-6.7v-6.55h-12.96v12.96h6.55v6.7h-6.55v19.51h12.96v-6.55h6.7v13.25h-32.9Z"/>
      <path class="cls-1" d="M482.67,43.2h-19.66v-6.55h-6.55v-13.25h6.55v-6.55h19.8v6.55h6.55v6.7h-6.7v-6.55h-19.51v12.96h19.66v6.55h6.55v19.8h-6.55v6.55h-19.8v-6.55h-6.55v-6.7h6.7v6.55h19.51v-19.51Z"/>
    </g>
  </g>
</svg>